<svg viewBox="0 0 32 32" xmlns="http://www.w3.org/2000/svg">
  <!-- Background circle with dark mystical color -->
  <circle cx="16" cy="16" r="16" fill="#0c0814"/>

  <!-- Outer transmutation circle -->
  <circle
    cx="16"
    cy="16"
    r="14"
    stroke="#a67c2e"
    stroke-width="1.5"
    fill="none"
    opacity="0.7"
  />

  <!-- Inner decorative circle -->
  <circle
    cx="16"
    cy="16"
    r="11"
    stroke="#6b4db8"
    stroke-width="1"
    fill="none"
    opacity="0.5"
  />

  <!-- Alchemical flask / vessel -->
  <path
    d="M13 8V12L9 20C8.5 21 9 22 10 22H22C23 22 23.5 21 23 20L19 12V8"
    stroke="#d4a43a"
    stroke-width="1.5"
    stroke-linecap="round"
    stroke-linejoin="round"
    fill="none"
  />

  <!-- Flask neck -->
  <path
    d="M13 8H19"
    stroke="#d4a43a"
    stroke-width="1.5"
    stroke-linecap="round"
  />

  <!-- Cork / stopper -->
  <rect x="14" y="5.5" width="4" height="2.5" rx="0.5" fill="#d4a43a" opacity="0.9"/>

  <!-- Bubbling potion inside - purple magic -->
  <circle cx="12" cy="18" r="1.5" fill="#9b6dff" opacity="0.8"/>
  <circle cx="16" cy="19" r="2" fill="#b794ff" opacity="0.7"/>
  <circle cx="19.5" cy="17.5" r="1.2" fill="#9b6dff" opacity="0.6"/>

  <!-- Rising vapor / magic spark -->
  <path
    d="M15 4.5C15 3.5 15.5 2.5 16 2.5C16.5 2.5 17 3.5 17 4.5"
    stroke="#f0d078"
    stroke-width="1"
    stroke-linecap="round"
    opacity="0.7"
  />

  <!-- Small sparkles around the circle -->
  <circle cx="6" cy="10" r="1" fill="#f0d078" opacity="0.8"/>
  <circle cx="26" cy="12" r="0.8" fill="#f0d078" opacity="0.7"/>
  <circle cx="25" cy="23" r="0.6" fill="#d4a43a" opacity="0.6"/>
  <circle cx="7" cy="22" r="0.6" fill="#d4a43a" opacity="0.5"/>
</svg>
